<?xml version="1.0" encoding="UTF-8" standalone="no"?>
<svg xmlns="http://www.w3.org/2000/svg" width="240" height="80" viewBox="0 0 240 80">
<defs>
<g id="bk"><path d="M17.87,2.00 L17.87,5.32 L17.39,5.79 L14.08,5.79 L14.08,9.11 L17.39,9.11 L17.87,9.58 L17.87,10.05 L17.39,10.53 L17.39,12.42 L16.92,12.89 L13.61,12.89 L13.13,12.42 L8.87,12.42 L8.39,11.95 L6.50,11.95 L3.66,14.79 L3.66,21.42 L4.13,21.89 L4.61,21.89 L5.55,22.84 L6.03,22.84 L6.97,23.79 L7.45,23.79 L8.39,24.74 L8.87,24.74 L9.82,25.68 L10.29,25.68 L11.24,26.63 L11.71,26.63 L12.66,27.58 L11.71,28.53 L10.76,28.53 L10.29,29.00 L9.34,29.00 L8.87,29.47 L7.92,29.47 L7.45,29.95 L6.50,29.95 L6.03,30.42 L5.08,30.42 L4.61,30.89 L3.66,30.89 L3.66,37.53 L35.39,37.53 L35.87,37.05 L35.87,31.37 L35.39,30.89 L34.45,30.89 L33.97,30.42 L33.03,30.42 L32.55,29.95 L31.61,29.95 L31.13,29.47 L30.18,29.47 L29.71,29.00 L28.76,29.00 L28.29,28.53 L27.34,28.53 L26.39,27.58 L27.34,26.63 L27.82,26.63 L28.76,25.68 L29.24,25.68 L30.18,24.74 L30.66,24.74 L31.61,23.79 L32.08,23.79 L33.03,22.84 L33.50,22.84 L34.45,21.89 L34.92,21.89 L35.39,21.42 L35.39,14.79 L32.55,11.95 L30.66,11.95 L30.18,12.42 L25.92,12.42 L25.45,12.89 L22.13,12.89 L21.66,12.42 L21.66,10.53 L21.18,10.05 L21.18,9.58 L21.66,9.11 L24.97,9.11 L24.97,5.79 L21.66,5.79 L21.18,5.32 L21.18,2.00 Z" fill="#1a1a1a" /></g>
<g id="wk"><path d="M17.87,2.00 L17.87,5.32 L17.39,5.79 L14.08,5.79 L14.08,9.11 L17.39,9.11 L17.87,9.58 L17.87,10.05 L17.39,10.53 L17.39,12.42 L16.92,12.89 L13.61,12.89 L13.13,12.42 L8.87,12.42 L8.39,11.95 L6.50,11.95 L3.66,14.79 L3.66,21.42 L4.13,21.89 L4.61,21.89 L5.55,22.84 L6.03,22.84 L6.97,23.79 L7.45,23.79 L8.39,24.74 L8.87,24.74 L9.82,25.68 L10.29,25.68 L11.24,26.63 L11.71,26.63 L12.66,27.58 L11.71,28.53 L10.76,28.53 L10.29,29.00 L9.34,29.00 L8.87,29.47 L7.92,29.47 L7.45,29.95 L6.50,29.95 L6.03,30.42 L5.08,30.42 L4.61,30.89 L3.66,30.89 L3.66,37.53 L35.39,37.53 L35.87,37.05 L35.87,31.37 L35.39,30.89 L34.45,30.89 L33.97,30.42 L33.03,30.42 L32.55,29.95 L31.61,29.95 L31.13,29.47 L30.18,29.47 L29.71,29.00 L28.76,29.00 L28.29,28.53 L27.34,28.53 L26.39,27.58 L27.34,26.63 L27.82,26.63 L28.76,25.68 L29.24,25.68 L30.18,24.74 L30.66,24.74 L31.61,23.79 L32.08,23.79 L33.03,22.84 L33.50,22.84 L34.45,21.89 L34.92,21.89 L35.39,21.42 L35.39,14.79 L32.55,11.95 L30.66,11.95 L30.18,12.42 L25.92,12.42 L25.45,12.89 L22.13,12.89 L21.66,12.42 L21.66,10.53 L21.18,10.05 L21.18,9.58 L21.66,9.11 L24.97,9.11 L24.97,5.79 L21.66,5.79 L21.18,5.32 L21.18,2.00 Z" fill="#fbf4e6" stroke="#1a1a1a" stroke-width="0.8" stroke-linejoin="round" /></g>
<g id="bq"><path d="M19.51,2.00 L17.53,3.97 L17.53,4.47 L12.60,9.40 L8.66,5.45 L8.66,4.96 L6.19,2.49 L5.70,2.49 L6.19,2.99 L6.19,4.47 L6.68,4.96 L6.68,5.95 L7.18,6.44 L7.18,7.92 L7.67,8.41 L7.67,9.40 L8.16,9.89 L8.16,10.88 L8.66,11.37 L8.66,12.85 L9.15,13.34 L9.15,14.33 L9.64,14.82 L9.64,16.30 L10.14,16.79 L10.14,17.78 L10.63,18.27 L10.63,19.26 L11.12,19.75 L11.12,21.23 L11.62,21.73 L11.62,22.71 L12.11,23.21 L12.11,24.68 L12.60,25.18 L12.60,26.16 L13.10,26.66 L13.10,28.14 L13.59,28.63 L13.10,29.12 L12.11,29.12 L11.62,29.62 L9.64,29.62 L9.15,30.11 L7.67,30.11 L7.18,30.60 L5.21,30.60 L4.71,31.10 L3.23,31.10 L3.23,37.51 L36.27,37.51 L36.27,30.60 L33.81,30.60 L33.32,30.11 L31.34,30.11 L30.85,29.62 L28.38,29.62 L27.89,29.12 L26.41,29.12 L25.92,28.63 L25.92,28.14 L26.41,27.64 L26.41,26.66 L26.90,26.16 L26.90,25.18 L27.40,24.68 L27.40,23.21 L27.89,22.71 L27.89,21.73 L28.38,21.23 L28.38,19.75 L28.88,19.26 L28.88,18.27 L29.37,17.78 L29.37,16.30 L29.86,15.81 L29.86,14.82 L30.36,14.33 L30.36,13.34 L30.85,12.85 L30.85,11.37 L31.34,10.88 L31.34,9.89 L31.84,9.40 L31.84,7.92 L32.33,7.42 L32.33,6.44 L32.82,5.95 L32.82,4.96 L33.32,4.47 L33.32,2.99 L33.81,2.49 L33.32,2.49 L26.90,8.90 L20.49,2.49 L20.49,2.00 Z" fill="#1a1a1a" /></g>
<g id="wq"><path d="M19.51,2.00 L17.53,3.97 L17.53,4.47 L12.60,9.40 L8.66,5.45 L8.66,4.96 L6.19,2.49 L5.70,2.49 L6.19,2.99 L6.19,4.47 L6.68,4.96 L6.68,5.95 L7.18,6.44 L7.18,7.92 L7.67,8.41 L7.67,9.40 L8.16,9.89 L8.16,10.88 L8.66,11.37 L8.66,12.85 L9.15,13.34 L9.15,14.33 L9.64,14.82 L9.64,16.30 L10.14,16.79 L10.14,17.78 L10.63,18.27 L10.63,19.26 L11.12,19.75 L11.12,21.23 L11.62,21.73 L11.62,22.71 L12.11,23.21 L12.11,24.68 L12.60,25.18 L12.60,26.16 L13.10,26.66 L13.10,28.14 L13.59,28.63 L13.10,29.12 L12.11,29.12 L11.62,29.62 L9.64,29.62 L9.15,30.11 L7.67,30.11 L7.18,30.60 L5.21,30.60 L4.71,31.10 L3.23,31.10 L3.23,37.51 L36.27,37.51 L36.27,30.60 L33.81,30.60 L33.32,30.11 L31.34,30.11 L30.85,29.62 L28.38,29.62 L27.89,29.12 L26.41,29.12 L25.92,28.63 L25.92,28.14 L26.41,27.64 L26.41,26.66 L26.90,26.16 L26.90,25.18 L27.40,24.68 L27.40,23.21 L27.89,22.71 L27.89,21.73 L28.38,21.23 L28.38,19.75 L28.88,19.26 L28.88,18.27 L29.37,17.78 L29.37,16.30 L29.86,15.81 L29.86,14.82 L30.36,14.33 L30.36,13.34 L30.85,12.85 L30.85,11.37 L31.34,10.88 L31.34,9.89 L31.84,9.40 L31.84,7.92 L32.33,7.42 L32.33,6.44 L32.82,5.95 L32.82,4.96 L33.32,4.47 L33.32,2.99 L33.81,2.49 L33.32,2.49 L26.90,8.90 L20.49,2.49 L20.49,2.00 Z" fill="#fbf4e6" stroke="#1a1a1a" stroke-width="0.8" stroke-linejoin="round" /></g>
<g id="br"><path d="M5.86,2.00 L5.86,12.80 L9.46,16.40 L9.46,27.71 L8.94,28.23 L8.43,28.23 L7.91,28.74 L6.89,28.74 L6.37,29.26 L4.83,29.26 L4.31,29.77 L2.77,29.77 L2.26,30.29 L2.26,37.49 L36.71,37.49 L37.23,36.97 L37.23,30.29 L36.71,29.77 L35.17,29.77 L34.66,29.26 L33.63,29.26 L33.11,28.74 L31.57,28.74 L30.54,27.71 L30.54,15.89 L33.63,12.80 L33.63,2.00 L30.54,2.00 L30.54,5.09 L30.03,5.60 L27.46,5.60 L26.94,5.09 L26.94,2.51 L26.43,2.00 L13.06,2.00 L13.06,5.09 L12.54,5.60 L9.46,5.60 L8.94,5.09 L8.94,2.00 Z" fill="#1a1a1a" /></g>
<g id="wr"><path d="M5.86,2.00 L5.86,12.80 L9.46,16.40 L9.46,27.71 L8.94,28.23 L8.43,28.23 L7.91,28.74 L6.89,28.74 L6.37,29.26 L4.83,29.26 L4.31,29.77 L2.77,29.77 L2.26,30.29 L2.26,37.49 L36.71,37.49 L37.23,36.97 L37.23,30.29 L36.71,29.77 L35.17,29.77 L34.66,29.26 L33.63,29.26 L33.11,28.74 L31.57,28.74 L30.54,27.71 L30.54,15.89 L33.63,12.80 L33.63,2.00 L30.54,2.00 L30.54,5.09 L30.03,5.60 L27.46,5.60 L26.94,5.09 L26.94,2.51 L26.43,2.00 L13.06,2.00 L13.06,5.09 L12.54,5.60 L9.46,5.60 L8.94,5.09 L8.94,2.00 Z" fill="#fbf4e6" stroke="#1a1a1a" stroke-width="0.8" stroke-linejoin="round" /></g>
<g id="bb"><path d="M16.79,2.00 L14.82,3.97 L14.33,3.97 L8.90,9.40 L8.90,9.89 L9.40,10.38 L9.40,11.37 L9.89,11.86 L9.89,12.85 L10.38,13.34 L10.38,14.33 L10.88,14.82 L10.88,15.81 L11.37,16.30 L11.37,16.79 L11.86,17.29 L11.86,18.27 L12.36,18.77 L12.36,19.75 L12.85,20.25 L12.85,21.23 L13.34,21.73 L13.34,22.71 L13.84,23.21 L13.84,23.70 L13.34,24.19 L4.47,24.19 L4.47,26.66 L4.96,27.15 L14.33,27.15 L14.82,27.64 L13.84,28.63 L11.86,28.63 L11.37,29.12 L9.40,29.12 L8.90,29.62 L6.93,29.62 L6.44,30.11 L3.97,30.11 L3.48,30.60 L2.99,30.60 L2.99,37.01 L3.48,37.51 L36.03,37.51 L36.52,37.01 L36.52,30.60 L36.03,30.60 L35.53,30.11 L33.56,30.11 L33.07,29.62 L30.60,29.62 L30.11,29.12 L28.14,29.12 L27.64,28.63 L25.67,28.63 L24.68,27.64 L25.18,27.15 L34.55,27.15 L35.04,26.66 L35.04,24.19 L26.66,24.19 L26.16,23.70 L26.16,23.21 L26.66,22.71 L26.66,21.73 L27.15,21.23 L27.15,20.25 L27.64,19.75 L27.64,18.77 L28.14,18.27 L28.14,17.29 L28.63,16.79 L28.63,15.81 L29.12,15.32 L29.12,14.33 L29.62,13.84 L29.62,13.34 L30.11,12.85 L30.11,11.86 L30.60,11.37 L30.60,10.38 L31.10,9.89 L27.64,6.44 L27.15,6.44 L22.71,2.00 L22.22,2.00 L22.22,2.49 L22.71,2.99 L22.71,4.47 L23.21,4.96 L23.21,6.44 L22.71,6.93 L18.27,2.49 L17.78,2.49 L17.29,2.00 Z" fill="#1a1a1a" /></g>
<g id="wb"><path d="M16.79,2.00 L14.82,3.97 L14.33,3.97 L8.90,9.40 L8.90,9.89 L9.40,10.38 L9.40,11.37 L9.89,11.86 L9.89,12.85 L10.38,13.34 L10.38,14.33 L10.88,14.82 L10.88,15.81 L11.37,16.30 L11.37,16.79 L11.86,17.29 L11.86,18.27 L12.36,18.77 L12.36,19.75 L12.85,20.25 L12.85,21.23 L13.34,21.73 L13.34,22.71 L13.84,23.21 L13.84,23.70 L13.34,24.19 L4.47,24.19 L4.47,26.66 L4.96,27.15 L14.33,27.15 L14.82,27.64 L13.84,28.63 L11.86,28.63 L11.37,29.12 L9.40,29.12 L8.90,29.62 L6.93,29.62 L6.44,30.11 L3.97,30.11 L3.48,30.60 L2.99,30.60 L2.99,37.01 L3.48,37.51 L36.03,37.51 L36.52,37.01 L36.52,30.60 L36.03,30.60 L35.53,30.11 L33.56,30.11 L33.07,29.62 L30.60,29.62 L30.11,29.12 L28.14,29.12 L27.64,28.63 L25.67,28.63 L24.68,27.64 L25.18,27.15 L34.55,27.15 L35.04,26.66 L35.04,24.19 L26.66,24.19 L26.16,23.70 L26.16,23.21 L26.66,22.71 L26.66,21.73 L27.15,21.23 L27.15,20.25 L27.64,19.75 L27.64,18.77 L28.14,18.27 L28.14,17.29 L28.63,16.79 L28.63,15.81 L29.12,15.32 L29.12,14.33 L29.62,13.84 L29.62,13.34 L30.11,12.85 L30.11,11.86 L30.60,11.37 L30.60,10.38 L31.10,9.89 L27.64,6.44 L27.15,6.44 L22.71,2.00 L22.22,2.00 L22.22,2.49 L22.71,2.99 L22.71,4.47 L23.21,4.96 L23.21,6.44 L22.71,6.93 L18.27,2.49 L17.78,2.49 L17.29,2.00 Z" fill="#fbf4e6" stroke="#1a1a1a" stroke-width="0.8" stroke-linejoin="round" /></g>
<g id="bn"><path d="M17.17,2.00 L17.17,4.06 L15.11,6.11 L14.60,6.11 L13.57,7.14 L13.06,7.14 L13.57,7.66 L13.57,8.69 L13.06,9.20 L12.54,9.20 L12.03,9.71 L11.51,9.71 L10.49,8.69 L9.97,9.20 L9.46,9.20 L7.91,10.74 L7.40,10.74 L6.37,11.77 L5.86,11.77 L4.83,12.80 L4.31,12.80 L2.77,14.34 L2.77,17.94 L4.83,17.94 L5.34,18.46 L4.31,19.49 L4.31,20.51 L4.83,20.51 L5.34,21.03 L5.86,20.51 L6.37,20.51 L7.40,19.49 L7.91,19.49 L8.94,18.46 L11.51,18.46 L12.03,17.94 L13.57,17.94 L14.09,18.46 L13.57,18.97 L13.57,19.49 L13.06,20.00 L13.06,20.51 L12.54,21.03 L12.54,21.54 L11.51,22.57 L11.51,23.09 L11.00,23.60 L11.00,24.11 L9.97,25.14 L9.97,25.66 L9.46,26.17 L9.46,26.69 L8.94,27.20 L8.94,27.71 L7.40,29.26 L5.86,29.26 L5.34,29.77 L3.29,29.77 L2.77,30.29 L2.26,30.29 L2.26,37.49 L37.23,37.49 L37.23,30.29 L36.71,29.77 L34.14,29.77 L33.63,29.26 L32.60,29.26 L31.57,28.23 L31.57,26.69 L31.06,26.17 L31.06,24.63 L30.54,24.11 L30.54,23.09 L30.03,22.57 L30.03,21.03 L29.51,20.51 L29.51,19.49 L29.00,18.97 L29.00,17.43 L28.49,16.91 L28.49,15.37 L27.97,14.86 L27.97,13.83 L27.46,13.31 L27.46,11.77 L26.94,11.26 L26.94,10.23 L26.43,9.71 L25.91,9.71 L24.89,8.69 L24.37,8.69 L22.83,7.14 L22.31,7.14 L21.29,6.11 L20.77,6.11 L18.71,4.06 L18.71,3.54 L17.69,2.51 L17.69,2.00 Z" fill="#1a1a1a" /></g>
<g id="wn"><path d="M17.17,2.00 L17.17,4.06 L15.11,6.11 L14.60,6.11 L13.57,7.14 L13.06,7.14 L13.57,7.66 L13.57,8.69 L13.06,9.20 L12.54,9.20 L12.03,9.71 L11.51,9.71 L10.49,8.69 L9.97,9.20 L9.46,9.20 L7.91,10.74 L7.40,10.74 L6.37,11.77 L5.86,11.77 L4.83,12.80 L4.31,12.80 L2.77,14.34 L2.77,17.94 L4.83,17.94 L5.34,18.46 L4.31,19.49 L4.31,20.51 L4.83,20.51 L5.34,21.03 L5.86,20.51 L6.37,20.51 L7.40,19.49 L7.91,19.49 L8.94,18.46 L11.51,18.46 L12.03,17.94 L13.57,17.94 L14.09,18.46 L13.57,18.97 L13.57,19.49 L13.06,20.00 L13.06,20.51 L12.54,21.03 L12.54,21.54 L11.51,22.57 L11.51,23.09 L11.00,23.60 L11.00,24.11 L9.97,25.14 L9.97,25.66 L9.46,26.17 L9.46,26.69 L8.94,27.20 L8.94,27.71 L7.40,29.26 L5.86,29.26 L5.34,29.77 L3.29,29.77 L2.77,30.29 L2.26,30.29 L2.26,37.49 L37.23,37.49 L37.23,30.29 L36.71,29.77 L34.14,29.77 L33.63,29.26 L32.60,29.26 L31.57,28.23 L31.57,26.69 L31.06,26.17 L31.06,24.63 L30.54,24.11 L30.54,23.09 L30.03,22.57 L30.03,21.03 L29.51,20.51 L29.51,19.49 L29.00,18.97 L29.00,17.43 L28.49,16.91 L28.49,15.37 L27.97,14.86 L27.97,13.83 L27.46,13.31 L27.46,11.77 L26.94,11.26 L26.94,10.23 L26.43,9.71 L25.91,9.71 L24.89,8.69 L24.37,8.69 L22.83,7.14 L22.31,7.14 L21.29,6.11 L20.77,6.11 L18.71,4.06 L18.71,3.54 L17.69,2.51 L17.69,2.00 Z" fill="#fbf4e6" stroke="#1a1a1a" stroke-width="0.8" stroke-linejoin="round" /></g>
<g id="bp"><path d="M12.61,2.00 L13.25,2.64 L13.25,3.93 L13.89,4.57 L13.89,5.86 L14.54,6.50 L14.54,8.43 L15.18,9.07 L15.18,11.64 L14.54,12.29 L14.54,12.93 L13.89,13.57 L13.89,14.21 L13.25,14.86 L13.25,15.50 L12.61,16.14 L12.61,16.79 L11.96,17.43 L11.96,18.07 L11.32,18.71 L11.32,19.36 L10.68,20.00 L10.68,20.64 L10.04,21.29 L10.04,21.93 L9.39,22.57 L9.39,23.21 L8.75,23.86 L8.75,24.50 L8.11,25.14 L8.11,25.79 L7.46,26.43 L7.46,27.07 L6.82,27.71 L5.54,27.71 L4.89,28.36 L2.96,28.36 L2.32,29.00 L2.32,36.71 L2.96,37.36 L36.39,37.36 L37.04,36.71 L37.04,29.00 L36.39,28.36 L34.46,28.36 L33.82,27.71 L33.18,27.71 L31.89,26.43 L31.89,25.79 L31.25,25.14 L31.25,24.50 L30.61,23.86 L30.61,23.21 L29.96,22.57 L29.96,21.93 L29.32,21.29 L29.32,20.64 L28.68,20.00 L28.68,19.36 L28.04,18.71 L28.04,18.07 L27.39,17.43 L27.39,16.79 L26.75,16.14 L26.75,15.50 L26.11,14.86 L26.11,14.21 L25.46,13.57 L25.46,12.93 L24.82,12.29 L24.82,11.64 L24.18,11.00 L24.18,9.71 L24.82,9.07 L24.82,7.79 L25.46,7.14 L25.46,5.86 L26.11,5.21 L26.11,3.93 L26.75,3.29 L26.75,2.00 Z" fill="#1a1a1a" /></g>
<g id="wp"><path d="M12.61,2.00 L13.25,2.64 L13.25,3.93 L13.89,4.57 L13.89,5.86 L14.54,6.50 L14.54,8.43 L15.18,9.07 L15.18,11.64 L14.54,12.29 L14.54,12.93 L13.89,13.57 L13.89,14.21 L13.25,14.86 L13.25,15.50 L12.61,16.14 L12.61,16.79 L11.96,17.43 L11.96,18.07 L11.32,18.71 L11.32,19.36 L10.68,20.00 L10.68,20.64 L10.04,21.29 L10.04,21.93 L9.39,22.57 L9.39,23.21 L8.75,23.86 L8.75,24.50 L8.11,25.14 L8.11,25.79 L7.46,26.43 L7.46,27.07 L6.82,27.71 L5.54,27.71 L4.89,28.36 L2.96,28.36 L2.32,29.00 L2.32,36.71 L2.96,37.36 L36.39,37.36 L37.04,36.71 L37.04,29.00 L36.39,28.36 L34.46,28.36 L33.82,27.71 L33.18,27.71 L31.89,26.43 L31.89,25.79 L31.25,25.14 L31.25,24.50 L30.61,23.86 L30.61,23.21 L29.96,22.57 L29.96,21.93 L29.32,21.29 L29.32,20.64 L28.68,20.00 L28.68,19.36 L28.04,18.71 L28.04,18.07 L27.39,17.43 L27.39,16.79 L26.75,16.14 L26.75,15.50 L26.11,14.86 L26.11,14.21 L25.46,13.57 L25.46,12.93 L24.82,12.29 L24.82,11.64 L24.18,11.00 L24.18,9.71 L24.82,9.07 L24.82,7.79 L25.46,7.14 L25.46,5.86 L26.11,5.21 L26.11,3.93 L26.75,3.29 L26.75,2.00 Z" fill="#fbf4e6" stroke="#1a1a1a" stroke-width="0.8" stroke-linejoin="round" /></g>
</defs>
</svg>